<svg width="24" height="24" viewBox="0 0 24 24" fill="none" xmlns="http://www.w3.org/2000/svg">
<path opacity="0.6" d="M12 0C5.38338 0 0 5.38292 0 12C0 18.6171 5.38338 24 12 24C18.6166 24 24 18.6171 24 12C24 5.38292 18.6166 0 12 0ZM12 23.0769C5.89246 23.0769 0.923077 18.1075 0.923077 12C0.923077 5.89246 5.89246 0.923077 12 0.923077C18.1075 0.923077 23.0769 5.89246 23.0769 12C23.0769 18.1075 18.1075 23.0769 12 23.0769Z" fill="#939DFF"/>
<path fill-rule="evenodd" clip-rule="evenodd" d="M16.0515 11.5154C16.3804 11.5154 16.6475 11.7818 16.6475 12.1113C16.6475 12.4409 16.3804 12.7073 16.0515 12.7073C10.7459 12.7073 12.8946 12.7073 7.97072 12.7073C7.64185 12.7073 7.37476 12.4409 7.37476 12.1113C7.37476 11.7818 7.64185 11.5154 7.97072 11.5154C12.681 11.5154 10.998 11.5154 16.0515 11.5154Z" fill="#6F7DFF"/>
</svg>
