<svg width="48" height="48" viewBox="0 0 48 48" fill="none" xmlns="http://www.w3.org/2000/svg">
<mask id="mask0" mask-type="alpha" maskUnits="userSpaceOnUse" x="0" y="0" width="48" height="48">
<rect width="48" height="48" fill="#C4C4C4"/>
</mask>
<g mask="url(#mask0)">
<path d="M40.4677 38.3996L16.9108 44.6765C13.7355 45.4888 10.4862 43.6427 9.67392 40.4673L3.397 16.9104C2.58469 13.735 4.43084 10.4857 7.60623 9.67343L31.1631 3.39651C34.3385 2.5842 37.5877 4.43035 38.4001 7.60574L44.677 31.1626C45.4893 34.2642 43.6431 37.5134 40.4677 38.3996Z" fill="#E1E4F4"/>
<path d="M26.8062 38.3994V31.6055C26.8062 30.7932 26.3631 29.9809 25.6246 29.6117L18.6831 25.624C17.7231 25.0332 16.4677 25.0332 15.5077 25.624L8.56618 29.6117C7.82772 30.0548 7.38464 30.7932 7.38464 31.6055V32.0486L9.67387 40.5409C9.82157 41.0578 9.96926 41.5009 10.1908 41.8701L15.5077 44.8978C15.9508 44.8978 16.4677 44.824 16.9108 44.6763L20.8985 43.6424L25.1816 41.1317C26.2154 40.5409 26.8062 39.507 26.8062 38.3994Z" fill="#57617F"/>
<path d="M15.5076 25.5503C16.4676 24.9595 17.723 24.9595 18.683 25.5503L25.6245 29.5379C26.363 29.981 26.806 30.7195 26.806 31.5318V38.3256C26.806 39.4333 26.2153 40.541 25.1814 41.0579L15.5076 25.5503Z" fill="#8698BF"/>
<path d="M17.1325 36.627C17.1325 36.1101 16.8371 35.667 16.4679 35.4455L8.64016 30.9409C8.12323 30.6455 7.45862 31.0147 7.45862 31.6055V32.0486L9.74785 40.5409C9.89555 41.0578 10.0432 41.5009 10.2648 41.8701L15.5817 44.8978C16.0248 44.8978 16.4679 44.824 16.9848 44.6763C17.1325 44.5286 17.2063 44.307 17.2063 44.0117V36.627H17.1325Z" fill="#57617F"/>
<path d="M8.5664 29.538L15.951 25.255C16.6156 24.8857 17.5018 24.8857 18.1664 25.255L25.551 29.538C26.0679 29.8334 26.0679 30.6457 25.551 30.9411L17.7233 35.4457C17.2802 35.6673 16.7633 35.6673 16.3202 35.4457L8.49255 30.9411C8.04948 30.6457 8.04948 29.8334 8.5664 29.538Z" fill="#BFC6F2"/>
<path d="M29.8341 6.71948L10.3387 12.8487L9.52641 18.3133L6.35102 16.4672L5.76025 22.5964L8.64025 24.2949L8.34487 26.2887L10.191 25.2549L20.2341 31.0887L23.3356 26.4364L15.7295 22.0056L19.5695 19.7902C21.1203 18.9041 23.0403 18.9041 24.591 19.7902L34.5603 25.7718L38.4741 17.3533L29.8341 6.71948Z" fill="#2B2E3A"/>
<path d="M11.6676 22.1534C16.2461 13.4396 24.3692 8.71342 29.9076 11.5934C33.8215 13.6611 35.3723 18.978 34.2646 25.0334C34.1907 25.6242 34.7815 25.9934 35.2246 25.7719L39.36 23.4088C40.3938 22.818 41.28 22.0057 41.8707 20.9719L38.3261 7.60574C37.5138 4.43035 34.1907 2.5842 31.0892 3.39651L7.53226 9.67343C4.35687 10.4857 2.51072 13.8088 3.32302 16.9103L8.19687 35.1503C8.12303 31.3103 9.30456 26.658 11.6676 22.1534Z" fill="#F97A7A"/>
<path d="M22.671 22.8181L22.8925 22.4489L21.8587 21.8581C21.7848 21.7843 21.711 21.7104 21.5633 21.7104C19.8648 20.8243 17.2802 22.3012 15.8771 25.0335C14.4741 27.692 14.4002 30.6458 16.0248 31.532L17.3541 32.2704L17.6494 31.7535C19.2002 31.532 21.0464 30.2027 22.0802 28.2089C23.1879 26.2889 23.3356 24.1474 22.671 22.8181Z" fill="#2B2E3A"/>
<path d="M22.8923 22.449C21.1939 21.5628 18.6093 23.0397 17.2062 25.772C15.8031 28.5043 15.7292 31.4582 17.4277 32.3443C19.1262 33.2305 22.0062 31.7536 23.4093 29.0212C24.8123 26.2889 24.6647 23.3351 22.8923 22.449Z" fill="#57617F"/>
<path d="M23.1875 25.9198L21.8583 25.1813C20.9721 24.7382 19.7168 25.4767 19.0521 26.8059C18.3137 28.1352 18.3137 29.6121 19.126 30.0552L20.4552 30.7936L21.1198 29.6121C21.4891 29.3167 21.8583 28.8736 22.1537 28.3567C22.3752 27.9136 22.5229 27.3967 22.5967 26.9536L23.1875 25.9198Z" fill="#FFB75E"/>
<path d="M23.188 25.9196C22.3019 25.4765 21.0465 26.215 20.3819 27.5442C19.6434 28.8734 19.6434 30.3503 20.4557 30.7933C21.3419 31.2364 22.7449 30.498 23.4096 29.1687C24.0742 27.8395 24.0003 26.4365 23.188 25.9196Z" fill="#FFD385"/>
<path d="M22.1536 26.363C22.0059 26.2891 21.7843 26.4368 21.6366 26.6583C21.489 26.8799 21.489 27.1752 21.6366 27.2491C21.7843 27.3229 22.0797 27.1752 22.2274 26.9537C22.3013 26.7322 22.3013 26.4368 22.1536 26.363Z" fill="#57617F"/>
<path d="M22.1536 29.6117C22.0059 29.5379 21.7843 29.6856 21.6366 29.9071C21.489 30.1287 21.489 30.4241 21.6366 30.4979C21.7843 30.5718 22.0797 30.4241 22.2274 30.2025C22.3013 29.981 22.3013 29.6856 22.1536 29.6117Z" fill="#57617F"/>
<path d="M23.6309 27.2485C23.4832 27.1746 23.2616 27.3223 23.1139 27.5439C22.9663 27.7654 22.9663 28.0608 23.1139 28.1347C23.2616 28.2085 23.557 28.0608 23.7047 27.8393C23.8524 27.6177 23.7786 27.3223 23.6309 27.2485Z" fill="#57617F"/>
<path d="M20.7506 28.9474C20.6029 28.8736 20.3814 29.0213 20.2337 29.2428C20.086 29.4644 20.086 29.7598 20.2337 29.8336C20.3814 29.9075 20.6768 29.7598 20.8245 29.5382C20.9722 29.3167 20.8983 29.0213 20.7506 28.9474Z" fill="#57617F"/>
<path d="M17.1326 43.1257L18.7572 44.898C17.7972 45.4888 16.5418 45.4888 15.5818 44.898L14.4741 44.3073L17.1326 43.1257Z" fill="#57617F"/>
<path d="M25.6247 30.9409L17.7971 35.4455C17.354 35.667 17.1324 36.1101 17.1324 36.627V44.0855C17.1324 44.8978 17.9448 45.3408 18.6094 44.9716L26.1417 40.6147C26.5847 40.3932 26.8063 39.9501 26.8063 39.4332V31.6055C26.8063 31.0147 26.1417 30.6455 25.6247 30.9409Z" fill="#8698BF"/>
<path d="M20.8987 35.1497L19.0526 36.1835C18.831 36.3312 18.6833 36.5527 18.6833 36.7743V42.6819C18.6833 43.0512 19.0526 43.2727 19.348 43.0512L21.1941 42.0173C21.4157 41.8696 21.5633 41.6481 21.5633 41.4266V35.5189C21.6372 35.1497 21.1941 34.9281 20.8987 35.1497Z" fill="#57617F"/>
<path d="M24.8124 32.9346L22.9663 33.9684C22.7447 34.1161 22.597 34.3377 22.597 34.5592V40.4669C22.597 40.8361 22.9663 41.0577 23.2617 40.8361L25.1078 39.8023C25.3293 39.6546 25.477 39.433 25.477 39.2115V33.3038C25.5509 32.9346 25.1817 32.713 24.8124 32.9346Z" fill="#57617F"/>
</g>
</svg>
