<svg width="331" height="64" viewBox="0 0 331 64" fill="none" xmlns="http://www.w3.org/2000/svg">
<path d="M81.96 20.37V22H73.83V7.67H75.76V20.37H81.96ZM85.5234 7.27V22H83.7434V7.27H85.5234ZM93.9 17.44C93.08 17.4667 92.38 17.5333 91.8 17.64C91.2267 17.74 90.7567 17.8733 90.39 18.04C90.03 18.2067 89.7667 18.4033 89.6 18.63C89.44 18.8567 89.36 19.11 89.36 19.39C89.36 19.6567 89.4033 19.8867 89.49 20.08C89.5767 20.2733 89.6933 20.4333 89.84 20.56C89.9933 20.68 90.17 20.77 90.37 20.83C90.5767 20.8833 90.7967 20.91 91.03 20.91C91.3433 20.91 91.63 20.88 91.89 20.82C92.15 20.7533 92.3933 20.66 92.62 20.54C92.8533 20.42 93.0733 20.2767 93.28 20.11C93.4933 19.9433 93.7 19.7533 93.9 19.54V17.44ZM88.15 13.3C88.71 12.76 89.3133 12.3567 89.96 12.09C90.6067 11.8233 91.3233 11.69 92.11 11.69C92.6767 11.69 93.18 11.7833 93.62 11.97C94.06 12.1567 94.43 12.4167 94.73 12.75C95.03 13.0833 95.2567 13.4867 95.41 13.96C95.5633 14.4333 95.64 14.9533 95.64 15.52V22H94.85C94.6767 22 94.5433 21.9733 94.45 21.92C94.3567 21.86 94.2833 21.7467 94.23 21.58L94.03 20.62C93.7633 20.8667 93.5033 21.0867 93.25 21.28C92.9967 21.4667 92.73 21.6267 92.45 21.76C92.17 21.8867 91.87 21.9833 91.55 22.05C91.2367 22.1233 90.8867 22.16 90.5 22.16C90.1067 22.16 89.7367 22.1067 89.39 22C89.0433 21.8867 88.74 21.72 88.48 21.5C88.2267 21.28 88.0233 21.0033 87.87 20.67C87.7233 20.33 87.65 19.93 87.65 19.47C87.65 19.07 87.76 18.6867 87.98 18.32C88.2 17.9467 88.5567 17.6167 89.05 17.33C89.5433 17.0433 90.1867 16.81 90.98 16.63C91.7733 16.4433 92.7467 16.3367 93.9 16.31V15.52C93.9 14.7333 93.73 14.14 93.39 13.74C93.05 13.3333 92.5533 13.13 91.9 13.13C91.46 13.13 91.09 13.1867 90.79 13.3C90.4967 13.4067 90.24 13.53 90.02 13.67C89.8067 13.8033 89.62 13.9267 89.46 14.04C89.3067 14.1467 89.1533 14.2 89 14.2C88.88 14.2 88.7767 14.17 88.69 14.11C88.6033 14.0433 88.53 13.9633 88.47 13.87L88.15 13.3ZM100.031 13.34C100.251 13.0933 100.485 12.87 100.731 12.67C100.978 12.47 101.238 12.3 101.511 12.16C101.791 12.0133 102.085 11.9033 102.391 11.83C102.705 11.75 103.041 11.71 103.401 11.71C103.955 11.71 104.441 11.8033 104.861 11.99C105.288 12.17 105.641 12.43 105.921 12.77C106.208 13.1033 106.425 13.5067 106.571 13.98C106.718 14.4533 106.791 14.9767 106.791 15.55V22H105.001V15.55C105.001 14.7833 104.825 14.19 104.471 13.77C104.125 13.3433 103.595 13.13 102.881 13.13C102.355 13.13 101.861 13.2567 101.401 13.51C100.948 13.7633 100.528 14.1067 100.141 14.54V22H98.3514V11.87H99.4214C99.6747 11.87 99.8314 11.9933 99.8914 12.24L100.031 13.34ZM112.477 22.16C111.677 22.16 111.06 21.9367 110.627 21.49C110.2 21.0433 109.987 20.4 109.987 19.56V13.36H108.767C108.66 13.36 108.57 13.33 108.497 13.27C108.424 13.2033 108.387 13.1033 108.387 12.97V12.26L110.047 12.05L110.457 8.92C110.477 8.82 110.52 8.74 110.587 8.68C110.66 8.61333 110.754 8.58 110.867 8.58H111.767V12.07H114.697V13.36H111.767V19.44C111.767 19.8667 111.87 20.1833 112.077 20.39C112.284 20.5967 112.55 20.7 112.877 20.7C113.064 20.7 113.224 20.6767 113.357 20.63C113.497 20.5767 113.617 20.52 113.717 20.46C113.817 20.4 113.9 20.3467 113.967 20.3C114.04 20.2467 114.104 20.22 114.157 20.22C114.25 20.22 114.334 20.2767 114.407 20.39L114.927 21.24C114.62 21.5267 114.25 21.7533 113.817 21.92C113.384 22.08 112.937 22.16 112.477 22.16ZM122.025 17.44C121.205 17.4667 120.505 17.5333 119.925 17.64C119.352 17.74 118.882 17.8733 118.515 18.04C118.155 18.2067 117.892 18.4033 117.725 18.63C117.565 18.8567 117.485 19.11 117.485 19.39C117.485 19.6567 117.528 19.8867 117.615 20.08C117.702 20.2733 117.818 20.4333 117.965 20.56C118.118 20.68 118.295 20.77 118.495 20.83C118.702 20.8833 118.922 20.91 119.155 20.91C119.468 20.91 119.755 20.88 120.015 20.82C120.275 20.7533 120.518 20.66 120.745 20.54C120.978 20.42 121.198 20.2767 121.405 20.11C121.618 19.9433 121.825 19.7533 122.025 19.54V17.44ZM116.275 13.3C116.835 12.76 117.438 12.3567 118.085 12.09C118.732 11.8233 119.448 11.69 120.235 11.69C120.802 11.69 121.305 11.7833 121.745 11.97C122.185 12.1567 122.555 12.4167 122.855 12.75C123.155 13.0833 123.382 13.4867 123.535 13.96C123.688 14.4333 123.765 14.9533 123.765 15.52V22H122.975C122.802 22 122.668 21.9733 122.575 21.92C122.482 21.86 122.408 21.7467 122.355 21.58L122.155 20.62C121.888 20.8667 121.628 21.0867 121.375 21.28C121.122 21.4667 120.855 21.6267 120.575 21.76C120.295 21.8867 119.995 21.9833 119.675 22.05C119.362 22.1233 119.012 22.16 118.625 22.16C118.232 22.16 117.862 22.1067 117.515 22C117.168 21.8867 116.865 21.72 116.605 21.5C116.352 21.28 116.148 21.0033 115.995 20.67C115.848 20.33 115.775 19.93 115.775 19.47C115.775 19.07 115.885 18.6867 116.105 18.32C116.325 17.9467 116.682 17.6167 117.175 17.33C117.668 17.0433 118.312 16.81 119.105 16.63C119.898 16.4433 120.872 16.3367 122.025 16.31V15.52C122.025 14.7333 121.855 14.14 121.515 13.74C121.175 13.3333 120.678 13.13 120.025 13.13C119.585 13.13 119.215 13.1867 118.915 13.3C118.622 13.4067 118.365 13.53 118.145 13.67C117.932 13.8033 117.745 13.9267 117.585 14.04C117.432 14.1467 117.278 14.2 117.125 14.2C117.005 14.2 116.902 14.17 116.815 14.11C116.728 14.0433 116.655 13.9633 116.595 13.87L116.275 13.3ZM133.284 13.9C133.604 13.2067 133.997 12.6667 134.464 12.28C134.93 11.8867 135.5 11.69 136.174 11.69C136.387 11.69 136.59 11.7133 136.784 11.76C136.984 11.8067 137.16 11.88 137.314 11.98L137.184 13.31C137.144 13.4767 137.044 13.56 136.884 13.56C136.79 13.56 136.654 13.54 136.474 13.5C136.294 13.46 136.09 13.44 135.864 13.44C135.544 13.44 135.257 13.4867 135.004 13.58C134.757 13.6733 134.534 13.8133 134.334 14C134.14 14.18 133.964 14.4067 133.804 14.68C133.65 14.9467 133.51 15.2533 133.384 15.6V22H131.594V11.87H132.614C132.807 11.87 132.94 11.9067 133.014 11.98C133.087 12.0533 133.137 12.18 133.164 12.36L133.284 13.9ZM142.739 11.71C143.479 11.71 144.145 11.8333 144.739 12.08C145.332 12.3267 145.839 12.6767 146.259 13.13C146.679 13.5833 146.999 14.1333 147.219 14.78C147.445 15.42 147.559 16.1367 147.559 16.93C147.559 17.73 147.445 18.45 147.219 19.09C146.999 19.73 146.679 20.2767 146.259 20.73C145.839 21.1833 145.332 21.5333 144.739 21.78C144.145 22.02 143.479 22.14 142.739 22.14C141.992 22.14 141.319 22.02 140.719 21.78C140.125 21.5333 139.619 21.1833 139.199 20.73C138.779 20.2767 138.455 19.73 138.229 19.09C138.009 18.45 137.899 17.73 137.899 16.93C137.899 16.1367 138.009 15.42 138.229 14.78C138.455 14.1333 138.779 13.5833 139.199 13.13C139.619 12.6767 140.125 12.3267 140.719 12.08C141.319 11.8333 141.992 11.71 142.739 11.71ZM142.739 20.75C143.739 20.75 144.485 20.4167 144.979 19.75C145.472 19.0767 145.719 18.14 145.719 16.94C145.719 15.7333 145.472 14.7933 144.979 14.12C144.485 13.4467 143.739 13.11 142.739 13.11C142.232 13.11 141.789 13.1967 141.409 13.37C141.035 13.5433 140.722 13.7933 140.469 14.12C140.222 14.4467 140.035 14.85 139.909 15.33C139.789 15.8033 139.729 16.34 139.729 16.94C139.729 18.14 139.975 19.0767 140.469 19.75C140.969 20.4167 141.725 20.75 142.739 20.75ZM151.606 19.56C151.933 20 152.29 20.31 152.676 20.49C153.07 20.67 153.5 20.76 153.966 20.76C154.92 20.76 155.65 20.4233 156.156 19.75C156.663 19.0767 156.916 18.0733 156.916 16.74C156.916 15.5 156.69 14.59 156.236 14.01C155.79 13.4233 155.15 13.13 154.316 13.13C153.736 13.13 153.23 13.2633 152.796 13.53C152.37 13.7967 151.973 14.1733 151.606 14.66V19.56ZM151.606 13.33C152.033 12.8367 152.513 12.4433 153.046 12.15C153.586 11.8567 154.206 11.71 154.906 11.71C155.5 11.71 156.033 11.8233 156.506 12.05C156.986 12.2767 157.393 12.6067 157.726 13.04C158.06 13.4667 158.313 13.9867 158.486 14.6C158.666 15.2133 158.756 15.9033 158.756 16.67C158.756 17.49 158.656 18.2367 158.456 18.91C158.256 19.5833 157.966 20.16 157.586 20.64C157.213 21.1133 156.756 21.4833 156.216 21.75C155.676 22.01 155.07 22.14 154.396 22.14C153.73 22.14 153.166 22.0167 152.706 21.77C152.253 21.5167 151.856 21.16 151.516 20.7L151.426 21.62C151.373 21.8733 151.22 22 150.966 22H149.816V7.27H151.606V13.33ZM166.498 17.44C165.678 17.4667 164.978 17.5333 164.398 17.64C163.824 17.74 163.354 17.8733 162.988 18.04C162.628 18.2067 162.364 18.4033 162.198 18.63C162.038 18.8567 161.958 19.11 161.958 19.39C161.958 19.6567 162.001 19.8867 162.088 20.08C162.174 20.2733 162.291 20.4333 162.438 20.56C162.591 20.68 162.768 20.77 162.968 20.83C163.174 20.8833 163.394 20.91 163.628 20.91C163.941 20.91 164.228 20.88 164.488 20.82C164.748 20.7533 164.991 20.66 165.218 20.54C165.451 20.42 165.671 20.2767 165.878 20.11C166.091 19.9433 166.298 19.7533 166.498 19.54V17.44ZM160.748 13.3C161.308 12.76 161.911 12.3567 162.558 12.09C163.204 11.8233 163.921 11.69 164.708 11.69C165.274 11.69 165.778 11.7833 166.218 11.97C166.658 12.1567 167.028 12.4167 167.328 12.75C167.628 13.0833 167.854 13.4867 168.008 13.96C168.161 14.4333 168.238 14.9533 168.238 15.52V22H167.448C167.274 22 167.141 21.9733 167.048 21.92C166.954 21.86 166.881 21.7467 166.828 21.58L166.628 20.62C166.361 20.8667 166.101 21.0867 165.848 21.28C165.594 21.4667 165.328 21.6267 165.048 21.76C164.768 21.8867 164.468 21.9833 164.148 22.05C163.834 22.1233 163.484 22.16 163.098 22.16C162.704 22.16 162.334 22.1067 161.988 22C161.641 21.8867 161.338 21.72 161.078 21.5C160.824 21.28 160.621 21.0033 160.468 20.67C160.321 20.33 160.248 19.93 160.248 19.47C160.248 19.07 160.358 18.6867 160.578 18.32C160.798 17.9467 161.154 17.6167 161.648 17.33C162.141 17.0433 162.784 16.81 163.578 16.63C164.371 16.4433 165.344 16.3367 166.498 16.31V15.52C166.498 14.7333 166.328 14.14 165.988 13.74C165.648 13.3333 165.151 13.13 164.498 13.13C164.058 13.13 163.688 13.1867 163.388 13.3C163.094 13.4067 162.838 13.53 162.618 13.67C162.404 13.8033 162.218 13.9267 162.058 14.04C161.904 14.1467 161.751 14.2 161.598 14.2C161.478 14.2 161.374 14.17 161.288 14.11C161.201 14.0433 161.128 13.9633 161.068 13.87L160.748 13.3ZM177.549 14.28C177.216 13.8333 176.856 13.5233 176.469 13.35C176.082 13.17 175.649 13.08 175.169 13.08C174.229 13.08 173.506 13.4167 172.999 14.09C172.492 14.7633 172.239 15.7233 172.239 16.97C172.239 17.63 172.296 18.1967 172.409 18.67C172.522 19.1367 172.689 19.5233 172.909 19.83C173.129 20.13 173.399 20.35 173.719 20.49C174.039 20.63 174.402 20.7 174.809 20.7C175.396 20.7 175.906 20.5667 176.339 20.3C176.779 20.0333 177.182 19.6567 177.549 19.17V14.28ZM179.329 7.27V22H178.269C178.016 22 177.856 21.8767 177.789 21.63L177.629 20.4C177.196 20.92 176.702 21.34 176.149 21.66C175.596 21.98 174.956 22.14 174.229 22.14C173.649 22.14 173.122 22.03 172.649 21.81C172.176 21.5833 171.772 21.2533 171.439 20.82C171.106 20.3867 170.849 19.8467 170.669 19.2C170.489 18.5533 170.399 17.81 170.399 16.97C170.399 16.2233 170.499 15.53 170.699 14.89C170.899 14.2433 171.186 13.6833 171.559 13.21C171.932 12.7367 172.389 12.3667 172.929 12.1C173.476 11.8267 174.089 11.69 174.769 11.69C175.389 11.69 175.919 11.7967 176.359 12.01C176.806 12.2167 177.202 12.5067 177.549 12.88V7.27H179.329ZM187.63 17.44C186.81 17.4667 186.11 17.5333 185.53 17.64C184.957 17.74 184.487 17.8733 184.12 18.04C183.76 18.2067 183.497 18.4033 183.33 18.63C183.17 18.8567 183.09 19.11 183.09 19.39C183.09 19.6567 183.134 19.8867 183.22 20.08C183.307 20.2733 183.424 20.4333 183.57 20.56C183.724 20.68 183.9 20.77 184.1 20.83C184.307 20.8833 184.527 20.91 184.76 20.91C185.074 20.91 185.36 20.88 185.62 20.82C185.88 20.7533 186.124 20.66 186.35 20.54C186.584 20.42 186.804 20.2767 187.01 20.11C187.224 19.9433 187.43 19.7533 187.63 19.54V17.44ZM181.88 13.3C182.44 12.76 183.044 12.3567 183.69 12.09C184.337 11.8233 185.054 11.69 185.84 11.69C186.407 11.69 186.91 11.7833 187.35 11.97C187.79 12.1567 188.16 12.4167 188.46 12.75C188.76 13.0833 188.987 13.4867 189.14 13.96C189.294 14.4333 189.37 14.9533 189.37 15.52V22H188.58C188.407 22 188.274 21.9733 188.18 21.92C188.087 21.86 188.014 21.7467 187.96 21.58L187.76 20.62C187.494 20.8667 187.234 21.0867 186.98 21.28C186.727 21.4667 186.46 21.6267 186.18 21.76C185.9 21.8867 185.6 21.9833 185.28 22.05C184.967 22.1233 184.617 22.16 184.23 22.16C183.837 22.16 183.467 22.1067 183.12 22C182.774 21.8867 182.47 21.72 182.21 21.5C181.957 21.28 181.754 21.0033 181.6 20.67C181.454 20.33 181.38 19.93 181.38 19.47C181.38 19.07 181.49 18.6867 181.71 18.32C181.93 17.9467 182.287 17.6167 182.78 17.33C183.274 17.0433 183.917 16.81 184.71 16.63C185.504 16.4433 186.477 16.3367 187.63 16.31V15.52C187.63 14.7333 187.46 14.14 187.12 13.74C186.78 13.3333 186.284 13.13 185.63 13.13C185.19 13.13 184.82 13.1867 184.52 13.3C184.227 13.4067 183.97 13.53 183.75 13.67C183.537 13.8033 183.35 13.9267 183.19 14.04C183.037 14.1467 182.884 14.2 182.73 14.2C182.61 14.2 182.507 14.17 182.42 14.11C182.334 14.0433 182.26 13.9633 182.2 13.87L181.88 13.3Z" fill="#494F66"/>
<path d="M117.198 52.662C117.198 53.05 117.158 53.422 117.078 53.778C116.998 54.13 116.882 54.46 116.73 54.768C116.582 55.076 116.4 55.36 116.184 55.62C115.968 55.876 115.722 56.102 115.446 56.298L117.648 58.698H116.316C116.124 58.698 115.95 58.672 115.794 58.62C115.642 58.568 115.502 58.472 115.374 58.332L114.102 56.928C113.898 56.984 113.688 57.026 113.472 57.054C113.26 57.082 113.038 57.096 112.806 57.096C112.15 57.096 111.55 56.986 111.006 56.766C110.466 56.542 110.002 56.232 109.614 55.836C109.23 55.44 108.932 54.972 108.72 54.432C108.508 53.888 108.402 53.298 108.402 52.662C108.402 52.026 108.508 51.438 108.72 50.898C108.932 50.354 109.23 49.884 109.614 49.488C110.002 49.092 110.466 48.784 111.006 48.564C111.55 48.34 112.15 48.228 112.806 48.228C113.462 48.228 114.06 48.34 114.6 48.564C115.14 48.788 115.602 49.098 115.986 49.494C116.37 49.886 116.668 50.354 116.88 50.898C117.092 51.438 117.198 52.026 117.198 52.662ZM115.542 52.662C115.542 52.186 115.478 51.76 115.35 51.384C115.226 51.004 115.046 50.682 114.81 50.418C114.574 50.154 114.286 49.952 113.946 49.812C113.61 49.672 113.23 49.602 112.806 49.602C112.382 49.602 112 49.672 111.66 49.812C111.32 49.952 111.03 50.154 110.79 50.418C110.554 50.682 110.372 51.004 110.244 51.384C110.116 51.76 110.052 52.186 110.052 52.662C110.052 53.138 110.116 53.566 110.244 53.946C110.372 54.322 110.554 54.642 110.79 54.906C111.03 55.166 111.32 55.366 111.66 55.506C112 55.646 112.382 55.716 112.806 55.716C113.23 55.716 113.61 55.646 113.946 55.506C114.286 55.366 114.574 55.166 114.81 54.906C115.046 54.642 115.226 54.322 115.35 53.946C115.478 53.566 115.542 53.138 115.542 52.662ZM122.566 55.698C122.878 55.698 123.156 55.646 123.4 55.542C123.648 55.438 123.856 55.292 124.024 55.104C124.196 54.916 124.326 54.688 124.414 54.42C124.506 54.152 124.552 53.852 124.552 53.52V48.324H126.166V53.52C126.166 54.036 126.082 54.514 125.914 54.954C125.75 55.39 125.512 55.768 125.2 56.088C124.888 56.404 124.51 56.652 124.066 56.832C123.622 57.008 123.122 57.096 122.566 57.096C122.01 57.096 121.51 57.008 121.066 56.832C120.622 56.652 120.244 56.404 119.932 56.088C119.624 55.768 119.386 55.39 119.218 54.954C119.054 54.514 118.972 54.036 118.972 53.52V48.324H120.586V53.514C120.586 53.846 120.63 54.146 120.718 54.414C120.81 54.682 120.94 54.912 121.108 55.104C121.276 55.292 121.482 55.438 121.726 55.542C121.974 55.646 122.254 55.698 122.566 55.698ZM130.222 57H128.602V48.324H130.222V57ZM138.892 48.324V49.65H136.282V57H134.668V49.65H132.046V48.324H138.892ZM147.261 57H146.013C145.873 57 145.757 56.966 145.665 56.898C145.577 56.826 145.513 56.738 145.473 56.634L144.825 54.864H141.231L140.583 56.634C140.551 56.726 140.487 56.81 140.391 56.886C140.299 56.962 140.185 57 140.049 57H138.795L142.203 48.324H143.853L147.261 57ZM141.645 53.724H144.411L143.355 50.838C143.307 50.71 143.253 50.56 143.193 50.388C143.137 50.212 143.081 50.022 143.025 49.818C142.969 50.022 142.913 50.212 142.857 50.388C142.805 50.564 142.753 50.718 142.701 50.85L141.645 53.724ZM150.423 53.61V57H148.809V48.324H151.455C152.047 48.324 152.553 48.386 152.973 48.51C153.397 48.63 153.743 48.8 154.011 49.02C154.283 49.24 154.481 49.504 154.605 49.812C154.733 50.116 154.797 50.452 154.797 50.82C154.797 51.112 154.753 51.388 154.665 51.648C154.581 51.908 154.457 52.144 154.293 52.356C154.133 52.568 153.933 52.754 153.693 52.914C153.457 53.074 153.187 53.202 152.883 53.298C153.087 53.414 153.263 53.58 153.411 53.796L155.583 57H154.131C153.991 57 153.871 56.972 153.771 56.916C153.675 56.86 153.593 56.78 153.525 56.676L151.701 53.898C151.633 53.794 151.557 53.72 151.473 53.676C151.393 53.632 151.273 53.61 151.113 53.61H150.423ZM150.423 52.452H151.431C151.735 52.452 151.999 52.414 152.223 52.338C152.451 52.262 152.637 52.158 152.781 52.026C152.929 51.89 153.039 51.73 153.111 51.546C153.183 51.362 153.219 51.16 153.219 50.94C153.219 50.5 153.073 50.162 152.781 49.926C152.493 49.69 152.051 49.572 151.455 49.572H150.423V52.452Z" fill="#6F7DFF"/>
<path opacity="0.6" d="M84 40C77.3834 40 72 45.3829 72 52C72 58.6171 77.3834 64 84 64C90.6166 64 96 58.6171 96 52C96 45.3829 90.6166 40 84 40ZM84 63.0769C77.8925 63.0769 72.9231 58.1075 72.9231 52C72.9231 45.8925 77.8925 40.9231 84 40.9231C90.1075 40.9231 95.0769 45.8925 95.0769 52C95.0769 58.1075 90.1075 63.0769 84 63.0769Z" fill="#939DFF"/>
<path fill-rule="evenodd" clip-rule="evenodd" d="M88.0515 51.5154C88.3804 51.5154 88.6475 51.7818 88.6475 52.1113C88.6475 52.4409 88.3804 52.7073 88.0515 52.7073C82.7459 52.7073 84.8946 52.7073 79.9707 52.7073C79.6418 52.7073 79.3748 52.4409 79.3748 52.1113C79.3748 51.7818 79.6418 51.5154 79.9707 51.5154C84.681 51.5154 82.998 51.5154 88.0515 51.5154Z" fill="#6F7DFF"/>
<mask id="mask0" mask-type="alpha" maskUnits="userSpaceOnUse" x="0" y="0" width="48" height="48">
<rect width="48" height="48" fill="#C4C4C4"/>
</mask>
<g mask="url(#mask0)">
<path d="M40.4677 38.3996L16.9108 44.6765C13.7355 45.4888 10.4862 43.6427 9.67392 40.4673L3.397 16.9104C2.58469 13.735 4.43084 10.4857 7.60623 9.67343L31.1631 3.39651C34.3385 2.5842 37.5877 4.43035 38.4001 7.60574L44.677 31.1626C45.4893 34.2642 43.6431 37.5134 40.4677 38.3996Z" fill="#E1E4F4"/>
<path d="M26.8062 38.3994V31.6055C26.8062 30.7932 26.3631 29.9809 25.6246 29.6117L18.6831 25.624C17.7231 25.0332 16.4677 25.0332 15.5077 25.624L8.56618 29.6117C7.82772 30.0548 7.38464 30.7932 7.38464 31.6055V32.0486L9.67387 40.5409C9.82157 41.0578 9.96926 41.5009 10.1908 41.8701L15.5077 44.8978C15.9508 44.8978 16.4677 44.824 16.9108 44.6763L20.8985 43.6424L25.1816 41.1317C26.2154 40.5409 26.8062 39.507 26.8062 38.3994Z" fill="#57617F"/>
<path d="M15.5076 25.5503C16.4676 24.9595 17.723 24.9595 18.683 25.5503L25.6245 29.5379C26.363 29.981 26.806 30.7195 26.806 31.5318V38.3256C26.806 39.4333 26.2153 40.541 25.1814 41.0579L15.5076 25.5503Z" fill="#8698BF"/>
<path d="M17.1325 36.627C17.1325 36.1101 16.8371 35.667 16.4679 35.4455L8.64016 30.9409C8.12323 30.6455 7.45862 31.0147 7.45862 31.6055V32.0486L9.74785 40.5409C9.89555 41.0578 10.0432 41.5009 10.2648 41.8701L15.5817 44.8978C16.0248 44.8978 16.4679 44.824 16.9848 44.6763C17.1325 44.5286 17.2063 44.307 17.2063 44.0117V36.627H17.1325Z" fill="#57617F"/>
<path d="M8.5664 29.538L15.951 25.255C16.6156 24.8857 17.5018 24.8857 18.1664 25.255L25.551 29.538C26.0679 29.8334 26.0679 30.6457 25.551 30.9411L17.7233 35.4457C17.2802 35.6673 16.7633 35.6673 16.3202 35.4457L8.49255 30.9411C8.04948 30.6457 8.04948 29.8334 8.5664 29.538Z" fill="#BFC6F2"/>
<path d="M29.8341 6.71948L10.3387 12.8487L9.52641 18.3133L6.35102 16.4672L5.76025 22.5964L8.64025 24.2949L8.34487 26.2887L10.191 25.2549L20.2341 31.0887L23.3356 26.4364L15.7295 22.0056L19.5695 19.7902C21.1203 18.9041 23.0403 18.9041 24.591 19.7902L34.5603 25.7718L38.4741 17.3533L29.8341 6.71948Z" fill="#2B2E3A"/>
<path d="M11.6676 22.1534C16.2461 13.4396 24.3692 8.71342 29.9076 11.5934C33.8215 13.6611 35.3723 18.978 34.2646 25.0334C34.1907 25.6242 34.7815 25.9934 35.2246 25.7719L39.36 23.4088C40.3938 22.818 41.28 22.0057 41.8707 20.9719L38.3261 7.60574C37.5138 4.43035 34.1907 2.5842 31.0892 3.39651L7.53226 9.67343C4.35687 10.4857 2.51072 13.8088 3.32302 16.9103L8.19687 35.1503C8.12303 31.3103 9.30456 26.658 11.6676 22.1534Z" fill="#F97A7A"/>
<path d="M22.671 22.8181L22.8925 22.4489L21.8587 21.8581C21.7848 21.7843 21.711 21.7104 21.5633 21.7104C19.8648 20.8243 17.2802 22.3012 15.8771 25.0335C14.4741 27.692 14.4002 30.6458 16.0248 31.532L17.3541 32.2704L17.6494 31.7535C19.2002 31.532 21.0464 30.2027 22.0802 28.2089C23.1879 26.2889 23.3356 24.1474 22.671 22.8181Z" fill="#2B2E3A"/>
<path d="M22.8923 22.449C21.1939 21.5628 18.6093 23.0397 17.2062 25.772C15.8031 28.5043 15.7292 31.4582 17.4277 32.3443C19.1262 33.2305 22.0062 31.7536 23.4093 29.0212C24.8123 26.2889 24.6647 23.3351 22.8923 22.449Z" fill="#57617F"/>
<path d="M23.1875 25.9198L21.8583 25.1813C20.9721 24.7382 19.7168 25.4767 19.0521 26.8059C18.3137 28.1352 18.3137 29.6121 19.126 30.0552L20.4552 30.7936L21.1198 29.6121C21.4891 29.3167 21.8583 28.8736 22.1537 28.3567C22.3752 27.9136 22.5229 27.3967 22.5967 26.9536L23.1875 25.9198Z" fill="#FFB75E"/>
<path d="M23.188 25.9196C22.3019 25.4765 21.0465 26.215 20.3819 27.5442C19.6434 28.8734 19.6434 30.3503 20.4557 30.7933C21.3419 31.2364 22.7449 30.498 23.4096 29.1687C24.0742 27.8395 24.0003 26.4365 23.188 25.9196Z" fill="#FFD385"/>
<path d="M22.1536 26.363C22.0059 26.2891 21.7843 26.4368 21.6366 26.6583C21.489 26.8799 21.489 27.1752 21.6366 27.2491C21.7843 27.3229 22.0797 27.1752 22.2274 26.9537C22.3013 26.7322 22.3013 26.4368 22.1536 26.363Z" fill="#57617F"/>
<path d="M22.1536 29.6117C22.0059 29.5379 21.7843 29.6856 21.6366 29.9071C21.489 30.1287 21.489 30.4241 21.6366 30.4979C21.7843 30.5718 22.0797 30.4241 22.2274 30.2025C22.3013 29.981 22.3013 29.6856 22.1536 29.6117Z" fill="#57617F"/>
<path d="M23.6309 27.2485C23.4832 27.1746 23.2616 27.3223 23.1139 27.5439C22.9663 27.7654 22.9663 28.0608 23.1139 28.1347C23.2616 28.2085 23.557 28.0608 23.7047 27.8393C23.8524 27.6177 23.7786 27.3223 23.6309 27.2485Z" fill="#57617F"/>
<path d="M20.7506 28.9474C20.6029 28.8736 20.3814 29.0213 20.2337 29.2428C20.086 29.4644 20.086 29.7598 20.2337 29.8336C20.3814 29.9075 20.6768 29.7598 20.8245 29.5382C20.9722 29.3167 20.8983 29.0213 20.7506 28.9474Z" fill="#57617F"/>
<path d="M17.1326 43.1257L18.7572 44.898C17.7972 45.4888 16.5418 45.4888 15.5818 44.898L14.4741 44.3073L17.1326 43.1257Z" fill="#57617F"/>
<path d="M25.6247 30.9409L17.7971 35.4455C17.354 35.667 17.1324 36.1101 17.1324 36.627V44.0855C17.1324 44.8978 17.9448 45.3408 18.6094 44.9716L26.1417 40.6147C26.5847 40.3932 26.8063 39.9501 26.8063 39.4332V31.6055C26.8063 31.0147 26.1417 30.6455 25.6247 30.9409Z" fill="#8698BF"/>
<path d="M20.8987 35.1497L19.0526 36.1835C18.831 36.3312 18.6833 36.5527 18.6833 36.7743V42.6819C18.6833 43.0512 19.0526 43.2727 19.348 43.0512L21.1941 42.0173C21.4157 41.8696 21.5633 41.6481 21.5633 41.4266V35.5189C21.6372 35.1497 21.1941 34.9281 20.8987 35.1497Z" fill="#57617F"/>
<path d="M24.8124 32.9346L22.9663 33.9684C22.7447 34.1161 22.597 34.3377 22.597 34.5592V40.4669C22.597 40.8361 22.9663 41.0577 23.2617 40.8361L25.1078 39.8023C25.3293 39.6546 25.477 39.433 25.477 39.2115V33.3038C25.5509 32.9346 25.1817 32.713 24.8124 32.9346Z" fill="#57617F"/>
</g>
</svg>
