<svg width="108" height="179" viewBox="0 0 108 179" fill="none" xmlns="http://www.w3.org/2000/svg">
<mask id="mask0" mask-type="alpha" maskUnits="userSpaceOnUse" x="0" y="0" width="108" height="179">
<rect width="108" height="179" fill="#C4C4C4"/>
</mask>
<g mask="url(#mask0)">
<path d="M34.0971 161.228C34.0971 161.228 36.0284 161.453 37.433 163.567C39.2326 166.267 39.8471 169.146 38.7059 171.531C37.5647 173.87 37.3013 174.455 37.0818 175.715C36.9502 176.48 37.6525 179.134 37.8719 179.719C38.2231 180.934 37.3013 181.069 37.3013 181.069C37.6964 181.924 37.2574 182.509 37.038 182.509C35.9406 182.374 35.2822 178.999 34.5799 177.56C34.5799 177.56 35.6773 181.519 35.8528 183.409C35.9845 185.163 34.3166 185.028 33.8338 183.139C33.8338 183.139 32.4731 182.644 31.9024 180.889C31.3318 179.134 30.454 175.625 30.7612 173.465C31.0685 171.306 32.2097 166.267 32.2097 166.267L34.0971 161.228Z" fill="#FAC2A8"/>
<path d="M32.7366 169.278C32.9999 170.043 33.2194 170.853 33.4389 171.663C33.6144 172.473 33.79 173.282 33.8339 174.137C33.8339 174.362 33.8339 174.542 33.79 174.767C33.7461 174.947 33.7461 175.127 33.79 175.352C33.8339 175.712 34.0095 176.072 34.2289 176.342C34.4923 176.612 34.8434 176.747 35.1068 176.567C35.2385 176.477 35.3702 176.342 35.414 176.207C35.5018 176.072 35.5457 175.892 35.5457 175.712C35.5896 175.307 35.5457 174.902 35.5457 174.497C35.5457 174.092 35.5457 173.642 35.6335 173.237C35.7652 172.383 36.1163 171.573 36.6869 170.943C36.9503 170.628 37.2576 170.358 37.477 169.998C37.6965 169.683 37.8721 169.323 37.9598 168.918C38.1793 168.153 38.0476 167.298 37.6526 166.579C38.1354 167.253 38.3549 168.108 38.1793 168.963C38.0476 169.818 37.477 170.538 36.9503 171.123C36.4675 171.753 36.1602 172.473 36.0286 173.282C35.8969 174.047 35.9847 174.857 35.9408 175.712C35.8969 175.937 35.8969 176.162 35.7652 176.387C35.6335 176.567 35.5018 176.792 35.2824 176.882C35.0629 177.017 34.7995 177.017 34.5801 176.927C34.3606 176.837 34.1412 176.702 34.0095 176.567C33.7022 176.252 33.5266 175.802 33.4828 175.352C33.4389 175.127 33.4828 174.902 33.5266 174.677C33.5705 174.497 33.5705 174.272 33.5705 174.092C33.5705 173.282 33.4389 172.473 33.3072 171.663C33.1316 170.898 32.9121 170.088 32.7366 169.278Z" fill="#DC918B"/>
<path d="M33.0438 175.177C33.0877 175.897 33.1316 176.572 33.2194 177.246C33.3072 177.921 33.4828 178.596 33.7022 179.226C33.79 179.541 33.9656 179.856 34.0973 180.171C34.2289 180.486 34.4045 180.756 34.5801 181.116C34.7118 181.431 34.7995 181.881 34.624 182.196C34.4923 182.556 34.185 182.78 33.8339 182.915C34.1411 182.735 34.4045 182.466 34.4923 182.151C34.5801 181.836 34.4923 181.521 34.3606 181.206C34.2289 180.936 34.0095 180.621 33.8339 180.306C33.6583 179.991 33.5266 179.676 33.395 179.316C33.1316 178.641 32.956 177.966 32.8683 177.246C32.7366 176.617 32.7366 175.852 33.0438 175.177Z" fill="#DC918B"/>
<path d="M36.379 176.031C36.3351 176.436 36.379 176.841 36.5106 177.201C36.5545 177.381 36.6862 177.516 36.774 177.696C36.8618 177.875 36.9496 178.1 36.9935 178.28C37.2129 179.09 37.3446 179.9 37.3885 180.71C37.169 179.945 36.9935 179.135 36.6862 178.415C36.5984 178.235 36.5107 178.055 36.4229 177.92C36.3351 177.741 36.2473 177.516 36.2473 177.291C36.2034 176.841 36.2473 176.436 36.379 176.031Z" fill="#DC918B"/>
<path d="M32.1227 161.226L31.0254 166.175C31.0254 166.175 36.9509 165.546 40.4624 169.55L41.428 162.261C41.4719 162.261 39.1456 160.191 32.1227 161.226Z" fill="#EF3F54"/>
<path d="M32.1222 161.229C32.1222 161.229 30.2787 155.11 32.0783 150.656C33.8779 146.201 36.4676 126.405 38.1355 119.026C39.0134 115.157 42.6565 110.028 44.8512 109.218C46.6069 108.543 47.0897 127.8 47.4409 130.274C45.2901 136.618 41.9103 145.707 41.9103 146.516C41.9103 153.535 38.6622 163.029 38.6622 163.029C38.6622 163.029 35.458 161.724 32.1222 161.229Z" fill="#BD1A3B"/>
<path d="M40.461 144.039L39.0564 175.039C39.0564 175.039 48.8445 180.303 56.5697 180.663C62.1441 208.873 60.8273 210.807 61.3102 213.507C61.5735 214.857 63.022 237.263 62.8903 238.073C62.7147 238.882 62.5831 240.277 62.8025 241.222C62.9781 241.942 62.5392 245.676 62.5392 245.676C62.5392 245.676 64.7777 246.351 67.6308 246.666C70.4838 246.981 74.1708 245.946 75.2681 245.946C75.2681 245.946 74.9609 243.967 75.2681 242.707C75.5315 241.672 74.6097 240.367 74.9609 239.242C75.2681 238.118 75.7071 232.134 75.7071 225.7C75.7071 218.006 75.2681 211.707 74.4781 209.413C74.7853 188.716 74.522 176.658 74.4781 175.579C74.3464 170.764 73.7319 167.165 73.7319 165.86C73.7319 164.556 72.7662 143.814 72.7662 143.814L40.461 144.039Z" fill="#474E64"/>
<path d="M51.7837 169.057C51.9154 170.362 52.0471 171.712 52.1788 173.062C52.3104 174.411 52.3982 175.716 52.486 177.066V177.336H52.2227H49.5891H49.3696V177.111C49.3257 175.941 49.2818 174.771 49.2379 173.602C49.194 172.432 49.194 171.262 49.1502 170.092L49.2818 170.227C48.6234 170.137 48.0089 170.047 47.3505 169.957H47.3066V169.912C47.3944 169.552 47.5261 169.237 47.6139 168.877C47.5261 169.237 47.4822 169.597 47.3944 169.912L47.3505 169.822C48.0089 169.867 48.6673 169.912 49.2818 169.957H49.4135V170.092C49.5013 171.262 49.5891 172.432 49.6769 173.557C49.7647 174.726 49.8085 175.896 49.8963 177.021L49.633 176.796H52.2666L52.0471 177.066C52.0032 175.716 51.9154 174.411 51.9154 173.062C51.7837 171.712 51.7837 170.407 51.7837 169.057Z" fill="#343948"/>
<path d="M74.4787 162.531L74.4348 166.13C74.4348 166.13 62.1008 168.425 59.9501 168.56C57.7993 168.65 56.5703 164.871 56.5703 164.871L58.8089 162.756L74.4787 162.531Z" fill="#EF3F54"/>
<path d="M38.8798 161.544L38.4409 165.144C38.4409 165.144 46.2539 167.798 48.3607 168.158C50.4676 168.563 52.2233 165.009 52.2233 165.009L50.292 162.624L38.8798 161.544Z" fill="#EF3F54"/>
<path d="M39.0562 174.996C39.0562 174.996 40.1096 200.236 40.1096 201.361C40.1096 202.486 40.8997 239.244 40.5924 240.054C40.2852 240.864 39.8023 244.868 39.8023 244.868C39.8023 244.868 43.0943 246.218 45.2451 246.353C47.2203 246.488 48.1859 246.623 53.5847 245.318C53.1458 241.989 53.1897 238.254 53.1897 237.13C53.1897 236.005 54.3309 223.182 54.3309 221.382C54.3309 219.583 55.2527 209.145 54.1554 204.645C53.8042 203.296 55.121 180.485 55.121 180.485C55.121 180.485 47.3519 179.135 39.0562 174.996Z" fill="#343948"/>
<path d="M38.1343 166.31V170.314C38.1343 170.314 43.7965 174.543 59.9491 173.733C76.1017 172.923 74.785 171.979 74.785 171.979L74.4777 165.185L38.1343 166.31Z" fill="#31374C"/>
<path d="M75.3556 110.789C75.3556 110.789 72.8976 109.619 68.201 108.269C65.1285 107.414 62.5388 106.829 59.1152 106.829C53.3652 106.784 46.7812 108.584 44.9377 109.169C43.0064 109.799 40.8118 116.818 40.3729 124.286C40.0217 130.09 39.3194 138.594 38.7927 148.582C38.4854 154.116 36.5103 163.024 38.1782 166.309C58.6763 172.743 74.5216 166.129 74.5216 166.129C76.7602 161.855 74.6094 156.321 76.6724 131.53C77.638 119.427 75.3556 110.789 75.3556 110.789Z" fill="#BD1A3B"/>
<path d="M44.8932 109.216C44.3665 109.441 44.0154 109.936 43.752 110.386C43.4448 110.881 43.2253 111.376 43.0058 111.916C42.5669 112.951 42.2597 114.03 41.9524 115.155C41.3818 117.36 41.0306 119.564 40.7673 121.814C40.6356 122.939 40.5917 124.064 40.5039 125.188L40.2845 128.608C40.1528 130.857 39.9772 133.152 39.8016 135.402C39.4505 139.946 39.1432 144.49 38.7043 148.989C38.3093 153.534 37.8703 158.033 37.3436 162.577L39.2749 135.357L39.7577 128.563L39.9772 125.144C40.065 124.019 40.1089 122.849 40.2845 121.724C40.5478 119.475 40.9868 117.225 41.6452 115.02C41.9524 113.94 42.3474 112.861 42.8303 111.826C43.0497 111.331 43.357 110.791 43.6642 110.341C43.9715 109.846 44.3665 109.396 44.8932 109.216Z" fill="#E0363C"/>
<path d="M64.821 93.6929L51.4775 94.0978C51.4775 94.0978 52.1359 100.982 52.1798 110.43C52.1798 112.229 53.1455 114.749 53.1455 114.749C53.1455 114.749 58.9394 113.984 64.8649 107.28C64.426 105.526 64.821 93.6929 64.821 93.6929Z" fill="#DC918B"/>
<path d="M51.828 168.653C50.3357 147.687 54.3299 118.892 54.6372 116.778L52.9693 114.843L53.3643 114.483L55.2078 116.598V116.733C55.1639 117.047 50.8624 147.012 52.3987 168.608L51.828 168.653Z" fill="#E0363C"/>
<path d="M27.0295 72.4141C27.0295 72.4141 23.518 60.6262 18.1631 65.6653C12.8081 70.7044 20.5333 86.0917 29.1364 82.1774C29.1364 82.2224 31.1554 80.4677 27.0295 72.4141Z" fill="#F7AB8D"/>
<path d="M15.0479 28.9082C8.5517 30.9328 11.8437 43.7106 13.1605 47.085C18.0326 59.6828 18.9982 70.8858 23.212 74.8901C23.212 74.8901 25.6261 25.6238 15.0479 28.9082Z" fill="#2B2E3A"/>
<path d="M83.1242 69.4873C83.0803 70.0272 81.7196 84.1097 73.3799 82.625L74.0383 73.8515L83.1242 69.4873Z" fill="#2B2E3A"/>
<path d="M74.6113 23.598C74.6113 23.598 25.4511 17.4791 18.121 32.3265C12.371 43.9344 18.955 55.1374 22.1153 69.6699C24.4855 80.5129 24.8805 88.1166 25.934 89.9163C30.4988 98.0148 42.1305 105.214 47.5732 105.034C59.5999 104.629 69.9148 94.2355 73.6896 86.6319C75.7964 82.3126 76.3671 69.1749 75.3575 53.7427C74.5236 40.515 76.6743 28.5472 74.6113 23.598Z" fill="#FAC2A8"/>
<path d="M52.8124 56.1366C53.6411 55.9503 54.1698 55.1302 53.9932 54.3049C53.8165 53.4797 53.0015 52.9618 52.1727 53.1481C51.344 53.3345 50.8153 54.1546 50.9919 54.9798C51.1686 55.8051 51.9836 56.323 52.8124 56.1366Z" fill="#31374C"/>
<path d="M52.9857 54.3211C53.2213 54.2625 53.3659 54.0195 53.3088 53.7783C53.2517 53.5372 53.0145 53.3892 52.7789 53.4478C52.5434 53.5064 52.3987 53.7495 52.4558 53.9906C52.5129 54.2318 52.7502 54.3797 52.9857 54.3211Z" fill="white"/>
<path opacity="0.2" d="M23.9576 66.0234C23.9576 67.1032 25.7134 67.958 27.8641 67.913C30.0149 67.868 31.7267 66.9682 31.7267 65.8884C31.7267 64.8086 29.971 63.9538 27.8202 63.9988C25.6695 64.0438 23.9576 64.9436 23.9576 66.0234Z" fill="#EF3F54"/>
<path opacity="0.2" d="M50.9958 62.245C51.4786 63.3698 53.7172 63.4598 55.9557 62.38C58.1943 61.3452 59.5989 59.5905 59.116 58.4657C58.6332 57.3409 56.3947 57.2509 54.1561 58.3307C51.8737 59.3655 50.4691 61.1202 50.9958 62.245Z" fill="#EF3F54"/>
<path d="M28.5423 60.993C29.3711 60.8066 29.8998 59.9866 29.7231 59.1613C29.5465 58.3361 28.7315 57.8182 27.9027 58.0046C27.0739 58.191 26.5453 59.011 26.7219 59.8362C26.8985 60.6615 27.7136 61.1794 28.5423 60.993Z" fill="#31374C"/>
<path d="M28.7156 59.1737C28.9511 59.1151 29.0958 58.872 29.0387 58.6309C28.9816 58.3897 28.7443 58.2417 28.5088 58.3004C28.2732 58.359 28.1286 58.602 28.1857 58.8432C28.2428 59.0843 28.48 59.2323 28.7156 59.1737Z" fill="white"/>
<path d="M19.613 50.2312C20.9737 48.2066 22.6856 46.5868 26.3726 46.0469C28.3039 46.0019 30.323 45.777 28.3917 43.9773C25.0997 41.2778 17.8573 45.822 17.594 51.221C17.2428 53.5606 18.8669 51.7159 19.613 50.2312Z" fill="#2B2E3A"/>
<path d="M56.3071 43.2145C54.4636 41.5948 52.4006 40.515 48.7136 40.9649C46.8262 41.4149 44.851 41.7748 46.2556 39.5252C48.7575 36.0159 56.8777 38.5354 58.5017 43.6195C59.4674 45.824 57.4483 44.4743 56.3071 43.2145Z" fill="#2B2E3A"/>
<path opacity="0.6" d="M41.3847 45.2385C41.3847 45.2385 38.5756 49.4228 32.1233 50.1877C32.1233 50.1877 38.6195 59.681 35.4153 72.8637C35.4153 72.8637 42.482 76.0581 47.6175 69.5792C47.5736 69.5792 41.0775 58.4212 41.3847 45.2385Z" fill="url(#paint0_linear)"/>
<path d="M73.2048 65.7532C68.6399 58.3745 70.4834 50.3659 65.5674 42.5823C61.8804 36.8234 61.0903 26.3852 63.2411 22.7859C63.2411 22.7859 76.0139 18.4217 76.7162 18.8266C80.8861 21.2561 86.5483 33.9889 84.3097 59.9042L73.2048 65.7532Z" fill="#2B2E3A"/>
<path d="M74.0827 62.38C74.0827 62.38 75.3117 54.9563 81.6762 57.0709C88.0406 59.2305 88.7429 78.0823 74.346 74.9778C74.346 74.9778 73.0292 70.1186 74.0827 62.38Z" fill="#FAC2A8"/>
<path d="M82.3353 61.8412C81.5891 61.4363 80.7113 61.1663 79.8773 61.2113C79.0433 61.2113 78.2533 61.6613 77.7705 62.3361C77.2876 63.011 76.9804 63.7759 76.7609 64.5857C76.5414 65.3956 76.4537 66.2505 76.3659 67.0603L76.0586 66.7904C76.8926 66.6554 77.7266 66.7454 78.4727 67.1953C79.2189 67.6002 79.6578 68.4101 79.7456 69.2199C79.8334 69.6249 79.7456 70.0298 79.6578 70.4347C79.5262 70.8397 79.2628 71.1546 78.9556 71.4245C78.3411 71.9195 77.5949 72.2344 76.8048 72.3694C77.551 72.1444 78.2533 71.7845 78.78 71.2446C79.0433 70.9746 79.2628 70.6597 79.3506 70.3447C79.4384 69.9848 79.4823 69.6699 79.3945 69.3099C79.2628 68.59 78.8678 67.9601 78.2533 67.6452C77.6388 67.2853 76.8487 67.2403 76.1903 67.3753L75.8831 67.4202L75.927 67.1053C76.0147 66.2504 76.1464 65.3956 76.3659 64.5407C76.5853 63.6859 76.9365 62.831 77.5071 62.1562C78.0777 61.4363 78.9994 60.9864 79.9212 61.0314C80.7991 60.9414 81.633 61.3013 82.3353 61.8412Z" fill="#DC918B"/>
<path d="M35.3704 72.8166C35.3704 72.8166 42.5688 81.275 47.5726 69.5322C47.5726 69.5772 42.7444 72.7266 35.3704 72.8166Z" fill="#DC918B"/>
<path d="M9.47445 22.9663C13.6443 17.4323 21.3695 6.45422 32.4744 4.96948C38.0049 4.33959 38.5755 5.59937 38.5755 5.59937C38.0049 4.78951 35.8542 2 35.8542 2C45.1156 5.01447 75.4896 -4.88379 76.6747 18.872C78.5182 20.4018 79.6594 21.6616 79.7911 22.2914C80.4495 25.3059 64.3408 41.953 64.4286 34.2593C64.7797 27.7355 65.1747 26.8806 62.5411 25.5309C57.7568 23.0563 50.295 23.9112 34.0984 31.5148C26.505 35.0692 12.3714 40.5133 0.520264 29.7151C0.520264 29.6702 5.30461 28.5004 9.47445 22.9663Z" fill="#2B2E3A"/>
<path d="M33.1328 81.5938C40.9897 86.408 37.6538 93.7417 47.9687 92.392C57.7568 90.0524 59.6442 73.0903 59.6442 73.0903C45.9496 85.9131 33.1328 81.5938 33.1328 81.5938Z" fill="#31374C"/>
<path d="M55.8693 85.417C48.2319 86.6318 44.6765 89.6913 43.0525 92.2108C44.2376 92.6158 45.8178 92.7057 47.9685 92.4358C51.5678 91.5359 54.1136 88.7014 55.8693 85.417Z" fill="#F97A7A"/>
<path d="M33.1328 81.5939C34.8007 82.5837 35.942 83.7085 36.8198 84.8333C37.2149 85.3282 50.7778 84.7883 58.503 78.5794C59.3369 75.4749 59.6003 73.0903 59.6003 73.0903C45.9496 85.9131 33.1328 81.5939 33.1328 81.5939Z" fill="white"/>
<path d="M34.1424 82.2692C34.4935 82.4942 34.8008 82.7641 35.108 83.0341C35.4153 83.304 35.7225 83.574 36.0298 83.8889C36.337 84.2039 36.6004 84.5188 36.8637 84.8338C37.9172 86.1385 38.7072 87.6233 39.5851 89.018C40.024 89.7379 40.5069 90.4128 41.0775 90.9527C41.3847 91.2226 41.692 91.4476 42.0431 91.6725C42.3943 91.8525 42.7454 92.0325 43.1404 92.1225C43.316 92.1675 43.5355 92.2124 43.7111 92.2574C43.8866 92.3024 44.1061 92.3474 44.2817 92.3474C44.6767 92.3924 45.0717 92.4374 45.4668 92.4374C45.8618 92.4374 46.2569 92.4374 46.6958 92.3924C47.0908 92.3924 47.4859 92.3024 47.8809 92.2574C49.7244 91.8075 51.4362 90.7277 52.7969 89.333C54.1576 87.9382 55.211 86.2735 56.0889 84.4738C56.9668 82.7191 57.6252 80.8295 58.1519 78.9398C58.4152 77.995 58.6786 77.0051 58.8542 76.0603C59.0736 75.0705 59.2492 74.1256 59.3809 73.1358L59.732 73.3158L58.3713 74.5306C57.8885 74.9355 57.4496 75.3404 56.9668 75.7004C56.4839 76.0603 56.0011 76.4652 55.4744 76.7802C54.9916 77.1401 54.4649 77.5 53.9381 77.815C53.4114 78.1299 52.8847 78.4449 52.358 78.7598C51.8313 79.0748 51.2607 79.3447 50.7339 79.6147C50.1633 79.8846 49.6366 80.1096 49.066 80.3345C48.4954 80.5595 47.9248 80.7845 47.3542 80.9644C46.7836 81.1444 46.213 81.3244 45.5985 81.5043C45.0278 81.6843 44.4133 81.8193 43.8427 81.9093C43.2282 82.0442 42.6576 82.1342 42.0431 82.2242C41.4286 82.3142 40.858 82.3592 40.2435 82.4042C39.0145 82.4492 37.8294 82.4492 36.6004 82.3592C35.4153 82.2242 34.1863 82.0442 33.045 81.6843C33.4401 81.8193 33.8351 82.0442 34.1424 82.2692ZM36.6882 82.1792C37.8733 82.2692 39.1023 82.2692 40.2874 82.1342C40.9019 82.0892 41.4725 81.9993 42.087 81.9093C42.7015 81.8193 43.2721 81.7293 43.8427 81.5943C44.4133 81.4593 45.0278 81.3244 45.5985 81.1444C46.1691 80.9644 46.7397 80.7845 47.3103 80.6045C47.8809 80.3795 48.4515 80.1996 48.9782 79.9296C49.5488 79.7047 50.0755 79.4347 50.6023 79.1648C51.129 78.8948 51.6557 78.6248 52.1824 78.3099C52.7091 77.995 53.2358 77.725 53.7187 77.3651C54.2454 77.0501 54.7282 76.6902 55.211 76.3303C55.6939 76.0153 56.1767 75.6104 56.6595 75.2504C57.1423 74.8905 57.5813 74.4856 58.0641 74.0806L59.4248 72.8659L59.8637 72.4609L59.7759 73.0458C59.6442 74.0357 59.4687 75.0255 59.2931 76.0153C59.0736 77.0051 58.8542 77.995 58.5908 78.9398C58.0641 80.8744 57.3618 82.7641 56.4839 84.5638C55.6061 86.3635 54.5087 88.0732 53.1042 89.5129C51.6996 90.9527 49.9439 92.0775 47.9687 92.4824C47.5736 92.5274 47.1347 92.5724 46.7397 92.5724C46.3446 92.6174 45.9057 92.6174 45.5107 92.6174C45.1156 92.6174 44.6767 92.5724 44.2817 92.5274C44.0622 92.5274 43.8866 92.4824 43.6672 92.4374C43.4477 92.3924 43.2721 92.3474 43.0527 92.2574C42.6576 92.1225 42.2626 91.9425 41.9114 91.7625C41.5603 91.5376 41.2092 91.3126 40.9019 90.9977C40.2874 90.4128 39.8046 89.7379 39.3656 89.018C38.9267 88.2981 38.5317 87.5783 38.1366 86.8584C37.7416 86.1385 37.2588 85.4636 36.776 84.7888C36.5126 84.4738 36.2492 84.1589 35.9859 83.8439C35.7225 83.529 35.4153 83.259 35.108 82.9891C34.8008 82.7191 34.4935 82.4492 34.1424 82.2242C33.8351 81.9543 33.484 81.7293 33.1328 81.5043C34.2741 81.9093 35.4592 82.0892 36.6882 82.1792Z" fill="#DC918B"/>
<path d="M56.7469 73.0896C56.7469 73.0896 57.142 72.9097 57.6687 72.8197C57.8004 72.7747 57.976 72.7747 58.1076 72.7297C58.2832 72.6847 58.4588 72.7297 58.5905 72.6847C58.766 72.6847 58.9416 72.6847 59.1172 72.7297C59.205 72.7297 59.2928 72.7747 59.3805 72.7747L59.6439 72.8647C59.8195 72.9097 59.9512 72.9997 60.1267 73.0896C60.2584 73.1796 60.434 73.3146 60.5657 73.4046C60.6973 73.5396 60.829 73.6296 60.9607 73.7645C61.0485 73.8995 61.1802 73.9895 61.2679 74.1245C61.3557 74.2145 61.4435 74.3494 61.5313 74.4394C61.6191 74.5294 61.663 74.6194 61.7069 74.7094C61.7947 74.8444 61.8825 74.9344 61.8825 74.9344C61.8825 74.9344 61.8386 74.8444 61.7947 74.6644C61.7069 74.4844 61.663 74.2595 61.4874 73.9895C61.3996 73.8545 61.3118 73.7195 61.2241 73.5396C61.0924 73.4046 61.0046 73.2696 60.8729 73.0896C60.7412 72.9547 60.5657 72.8197 60.3901 72.6847C60.2145 72.5947 60.0389 72.4597 59.8195 72.4147L59.5122 72.3248C59.4244 72.2798 59.2928 72.2798 59.205 72.2798C58.9855 72.2348 58.8099 72.2798 58.5905 72.2798C58.4149 72.3248 58.1954 72.3248 58.0198 72.3697C57.8443 72.4147 57.7126 72.4597 57.537 72.5497C57.0542 72.7747 56.7469 73.0896 56.7469 73.0896Z" fill="#DC918B"/>
<path d="M48.8883 18.824C48.8883 18.824 51.1268 23.6831 44.9818 28.9022C38.0467 34.7512 29.1803 35.561 29.1803 35.561C29.1803 35.561 33.2185 32.5016 32.4723 29.1722C31.375 24.268 40.1536 16.1694 40.1536 16.1694L48.8883 18.824Z" fill="#2B2E3A"/>
<path d="M28.7432 5.86987C28.7432 5.86987 25.8023 6.72472 14.6974 13.6984C10.0447 16.6229 6.57716 11.7638 6.57716 11.7638C6.57716 11.7638 3.59243 23.7316 14.8291 22.4718C26.0657 21.1671 28.7432 5.86987 28.7432 5.86987Z" fill="#2B2E3A"/>
<path d="M64.6485 102.289C64.6485 102.289 59.3374 105.213 56.2649 105.438C53.1924 105.663 53.8069 113.132 53.5874 115.157C53.5874 115.157 60.742 114.122 63.4633 112.007C66.1847 109.893 67.1504 108.228 67.1504 108.228C67.1504 108.228 67.5015 103.864 67.0626 102.064C66.9309 101.614 64.6046 100.354 64.6046 100.354L64.6485 102.289Z" fill="#31374C"/>
<path d="M51.0843 104.625C51.0843 104.625 50.382 104.94 49.8992 105.614C49.4164 106.289 50.5137 110.834 50.3381 111.958C50.1626 113.083 52.7084 114.928 52.7084 114.928L53.3229 114.388L52.9717 106.829C52.9717 106.334 52.6206 105.884 52.1377 105.749L52.0939 104.4L51.0843 104.625Z" fill="#31374C"/>
<path d="M53.9804 114.976L53.717 114.886V114.256L53.0586 114.031L52.7514 114.526L52.4441 114.481L51.3907 117.046C51.259 117.361 51.4346 117.721 51.7418 117.811L52.6636 118.126C52.9708 118.216 53.322 118.036 53.4098 117.676L53.9804 114.976Z" fill="#E1E4F4"/>
<path d="M62.2774 125.412C62.1457 125.412 62.0579 125.457 61.9702 125.592L60.6973 127.167L60.3461 125.547C60.3022 125.367 60.2144 125.322 60.1266 125.322C59.995 125.322 59.9072 125.367 59.8194 125.502L58.6343 127.572L59.2049 127.617L59.995 126.177L60.3461 127.707L60.8289 127.752L61.9702 126.357L61.8824 127.842L62.3652 127.887L62.4969 125.817C62.4969 125.547 62.3652 125.457 62.2774 125.412Z" fill="white"/>
<path d="M58.0203 125.547L57.4058 127.481H57.9325L58.547 125.547H58.0203Z" fill="white"/>
<path d="M57.0545 126.039C57.0984 125.769 56.9667 125.454 56.44 125.454L55.4305 125.364L54.8599 127.298L55.3866 127.343L55.606 126.623H55.8694L56.3083 127.388L56.8789 127.433L56.3961 126.623C56.835 126.533 57.0106 126.264 57.0545 126.039ZM56.045 126.309L55.6499 126.264L55.8255 125.679L56.2205 125.724C56.44 125.724 56.5278 125.859 56.4839 126.039C56.4839 126.219 56.3083 126.309 56.045 126.309Z" fill="white"/>
<path d="M64.5606 127.928L65.0873 127.973L64.7362 126.129C64.6923 125.904 64.5606 125.859 64.4289 125.859C64.3411 125.859 64.2533 125.904 64.1656 125.994L62.761 127.793L63.2877 127.838L63.5511 127.433L64.4728 127.478L64.5606 127.928ZM63.7705 127.164L64.2972 126.489L64.4289 127.208L63.7705 127.164Z" fill="white"/>
<path d="M66.7096 127.705C66.2707 127.66 66.0512 127.39 66.0951 127.075C66.1829 126.67 66.578 126.4 67.1047 126.445C67.2803 126.445 67.4558 126.49 67.6314 126.535L67.7631 126.131C67.6314 126.086 67.368 126.041 67.1925 126.041C66.2707 125.996 65.7001 126.355 65.5684 126.985C65.4806 127.57 65.8318 127.974 66.6657 128.019C66.8413 128.019 66.973 128.019 67.1925 128.019L67.3241 127.615C67.1047 127.705 66.9291 127.75 66.7096 127.705Z" fill="white"/>
<path d="M44.6747 145.254C44.6747 145.254 43.8408 144.489 43.753 143.859C43.6652 143.23 44.2797 142.24 44.2797 142.24C44.2797 142.24 43.753 141.475 44.0163 140.53C44.2797 139.54 44.8942 139.135 44.8942 139.135C44.8942 139.135 44.1041 138.37 44.3675 137.471C44.6308 136.526 45.6404 136.211 46.9572 136.391C46.9572 136.391 54.3312 136.526 55.2968 137.381C56.6575 138.55 58.4132 141.97 58.4132 141.97C59.6422 143.14 59.2472 148.404 59.2472 148.404L55.9113 147.954C54.9018 149.034 47.9667 148.944 47.3083 148.629C45.8598 147.999 45.5087 147.909 44.5869 147.099C43.9724 146.514 44.6747 145.254 44.6747 145.254Z" fill="#FAC2A8"/>
<path d="M52.0498 130.767C51.962 131.982 52.4448 132.612 53.8055 135.356C54.3761 136.526 55.9563 135.941 57.6242 140.396C58.0631 141.61 49.9868 138.191 50.4696 137.696C51.4353 136.616 49.1967 134.592 49.2406 132.117C49.2406 129.957 52.2254 128.023 52.0498 130.767Z" fill="#FAC2A8"/>
<path d="M46.1227 136.438C46.1227 136.438 50.0292 136.123 50.6876 137.563C51.346 138.958 50.7315 139.678 49.9414 139.768C49.9414 139.768 50.5559 140.262 50.4242 141.297C50.2926 142.332 49.4147 142.467 48.4929 142.602C47.5712 142.737 45.1132 142.332 45.1132 142.332L46.1227 136.438Z" fill="#FAC2A8"/>
<path d="M57.8011 140.485L63.4194 141.475L62.4977 149.213L57.0549 148.358L57.8011 140.485Z" fill="#EF3F54"/>
<path d="M61.8807 141.206C63.373 137.561 68.9913 139.901 71.8444 139.406C70.747 134.997 70.2642 130.408 70.2642 130.408L68.2012 125.954C68.4207 115.695 71.2738 111.376 75.1363 110.521C75.1363 110.521 79.4818 112.276 80.7985 118.62C81.1936 120.554 85.2756 147.415 80.9302 151.284C77.0237 154.748 64.9971 153.984 61.3978 150.339L61.8807 141.206Z" fill="#BD1A3B"/>
<path d="M61.8794 141.206C62.055 140.756 62.2744 140.351 62.6256 140.036C62.9767 139.721 63.3718 139.496 63.8107 139.316C64.6885 139.001 65.6103 138.956 66.4882 138.956C67.4099 139.001 68.2878 139.091 69.1656 139.136C70.0435 139.226 70.9653 139.271 71.7992 139.136L71.6237 139.406C71.2286 137.921 70.9214 136.437 70.658 134.907C70.3947 133.422 70.1752 131.892 69.9996 130.363L70.0435 130.498C69.3412 129.013 68.6389 127.483 67.9805 125.998L67.9366 125.954V125.909C67.9805 124.379 68.0683 122.849 68.2878 121.319C68.4634 119.79 68.7706 118.305 69.2534 116.82C69.3851 116.46 69.5168 116.1 69.6485 115.74C69.7801 115.38 69.9557 115.02 70.1313 114.705C70.3069 114.346 70.4824 114.031 70.7019 113.716C70.9214 113.401 71.1408 113.086 71.4042 112.816C71.887 112.231 72.4576 111.736 73.116 111.331C73.7744 110.926 74.4767 110.656 75.2229 110.521C74.5206 110.701 73.8183 111.016 73.2038 111.421C72.5893 111.871 72.0626 112.366 71.6237 112.951C70.7019 114.121 70.1313 115.56 69.6924 116.955C69.2534 118.395 69.034 119.88 68.8584 121.409C68.6828 122.894 68.595 124.424 68.5511 125.954L68.5072 125.819C69.2095 127.303 69.8679 128.743 70.5263 130.228L70.5702 130.318V130.363C70.7458 131.847 70.9653 133.377 71.1847 134.862C71.4481 136.347 71.7553 137.831 72.0626 139.316L72.1065 139.541L71.887 139.586C70.9653 139.721 70.0435 139.631 69.1656 139.496C68.2878 139.406 67.366 139.271 66.4882 139.226C65.6103 139.181 64.6886 139.181 63.8546 139.406C62.9767 139.766 62.2305 140.351 61.8794 141.206Z" fill="#E0363C"/>
<path d="M80.9742 151.284C80.3597 151.869 79.5696 152.319 78.7795 152.634C77.9894 152.994 77.1116 153.219 76.2776 153.354C74.5658 153.669 72.8101 153.804 71.0982 153.714C69.3864 153.624 67.6307 153.399 65.9627 152.904C65.1288 152.679 64.2948 152.364 63.5047 151.959C62.7147 151.554 61.9685 151.105 61.3101 150.43L61.2223 150.34V150.25C61.2662 149.485 61.3101 148.72 61.354 147.955L61.5295 145.66C61.5734 144.896 61.6612 144.131 61.7051 143.366C61.749 142.601 61.8368 141.836 61.8807 141.071C61.8807 141.836 61.8807 142.601 61.8368 143.366C61.8368 144.131 61.8368 144.896 61.7929 145.66L61.749 147.955C61.7051 148.72 61.7051 149.485 61.6612 150.25L61.5734 150.07C62.8024 151.24 64.4265 151.869 66.0505 152.319C67.6746 152.769 69.3864 153.039 71.0982 153.129C72.8101 153.219 74.5219 153.219 76.1898 152.949C77.9016 152.814 79.5696 152.364 80.9742 151.284Z" fill="#E0363C"/>
</g>
<defs>
<linearGradient id="paint0_linear" x1="38.0715" y1="45.6803" x2="41.7183" y2="73.4394" gradientUnits="userSpaceOnUse">
<stop stop-color="#FAC2A8"/>
<stop offset="0.2651" stop-color="#F7BCA5"/>
<stop offset="0.6038" stop-color="#EDAD9B"/>
<stop offset="0.981" stop-color="#DD938C"/>
<stop offset="1" stop-color="#DC918B"/>
</linearGradient>
</defs>
</svg>
